HIERARCHY
ROOT SpineBase
{
  OFFSET 0.000000 0.000000 0.000000
  CHANNELS 6 Xposition Yposition Zposition Zrotation Xrotation Yrotation
  JOINT SpineMid
  {
    OFFSET -0.000000 33.053388 0.000000
    CHANNELS 3 Zrotation Xrotation Yrotation
    JOINT SpineShoulder
    {
      OFFSET 0.134116 24.418728 -0.865769
      CHANNELS 3 Zrotation Xrotation Yrotation
      JOINT Neck
      {
        OFFSET 0.133701 8.038780 -0.642072
        CHANNELS 3 Zrotation Xrotation Yrotation
        JOINT Head
        {
          OFFSET 3.752306 11.810901 5.924693
          CHANNELS 3 Zrotation Xrotation Yrotation
          End Site
          {
            OFFSET 0 0 0
          }
        }
      }
      JOINT ShoulderLeft
      {
        OFFSET -5.127315 -4.345022 -15.222552
        CHANNELS 3 Zrotation Xrotation Yrotation
        JOINT ElbowLeft
        {
          OFFSET -1.879490 -24.370879 -6.651915
          CHANNELS 3 Zrotation Xrotation Yrotation
          JOINT WristLeft
          {
            OFFSET 5.841431 -20.296808 0.556844
            CHANNELS 3 Zrotation Xrotation Yrotation
            JOINT HandLeft
            {
              OFFSET 0.826326 -7.331343 2.278373
              CHANNELS 3 Zrotation Xrotation Yrotation
              JOINT HandTipLeft
              {
                OFFSET 3.525186 -7.526304 -0.310558
                CHANNELS 3 Zrotation Xrotation Yrotation
                End Site
                {
                  OFFSET 0 0 0
                }
              }
              JOINT ThumbLeft
              {
                OFFSET 3.047827 0.856315 -0.608670
                CHANNELS 3 Zrotation Xrotation Yrotation
                End Site
                {
                  OFFSET 0 0 0
                }
              }
            }
          }
        }
      }
      JOINT ShoulderRight
      {
        OFFSET 6.070449 -4.012912 15.055337
        CHANNELS 3 Zrotation Xrotation Yrotation
        JOINT ElbowRight
        {
          OFFSET 0.939373 -27.825362 -6.856952
          CHANNELS 3 Zrotation Xrotation Yrotation
          JOINT WristRight
          {
            OFFSET -6.446512 -25.193609 -11.624952
            CHANNELS 3 Zrotation Xrotation Yrotation
            JOINT HandRight
            {
              OFFSET 3.293772 -7.094475 -7.063366
              CHANNELS 3 Zrotation Xrotation Yrotation
              JOINT HandTipRight
              {
                OFFSET -3.460006 -5.914344 -3.868199
                CHANNELS 3 Zrotation Xrotation Yrotation
                End Site
                {
                  OFFSET 0 0 0
                }
              }
              JOINT ThumbRight
              {
                OFFSET -0.253789 1.129784 -6.543508
                CHANNELS 3 Zrotation Xrotation Yrotation
                End Site
                {
                  OFFSET 0 0 0
                }
              }
            }
          }
        }
      }
    }
  }
  JOINT HipLeft
  {
    OFFSET -1.574327 1.586835 -8.786533
    CHANNELS 3 Zrotation Xrotation Yrotation
    JOINT KneeLeft
    {
      OFFSET -7.797718 -35.687917 -3.302945
      CHANNELS 3 Zrotation Xrotation Yrotation
      JOINT AnkleLeft
      {
        OFFSET -9.048818 -35.244100 5.296520
        CHANNELS 3 Zrotation Xrotation Yrotation
        JOINT FootLeft
        {
          OFFSET 3.405035 -8.843222 -3.792365
          CHANNELS 3 Zrotation Xrotation Yrotation
          End Site
          {
            OFFSET 0 0 0
          }
        }
      }
    }
  }
  JOINT HipRight
  {
    OFFSET 3.252035 -0.770701 0.972408
    CHANNELS 3 Zrotation Xrotation Yrotation
    JOINT KneeRight
    {
      OFFSET -2.007563 -33.004009 7.852512
      CHANNELS 3 Zrotation Xrotation Yrotation
      JOINT AnkleRight
      {
        OFFSET -10.367814 -36.844061 5.403520
        CHANNELS 3 Zrotation Xrotation Yrotation
        JOINT FootRight
        {
          OFFSET 11.437333 -4.346779 -7.475796
          CHANNELS 3 Zrotation Xrotation Yrotation
          End Site
          {
            OFFSET 0 0 0
          }
        }
      }
    }
  }
}
MOTION
Frames: 5
Frame Time: 0.033333
-80.076053 83.595482 364.457984 0.000000 0.000000 -63.684937 -0.000000 -0.000000 63.684937 -0.000000 0.000000 0.000000 -0.000000 0.000000 0.000000 0.000000 0.000000 0.000000 -0.000000 0.000000 0.000000 -0.000000 0.000000 0.000000 -0.000000 0.000000 0.000000 -0.000000 0.000000 0.000000 0.000000 0.000000 0.000000 0.000000 0.000000 0.000000 -0.000000 0.000000 0.000000 -0.000000 0.000000 0.000000 -0.000000 0.000000 0.000000 -0.000000 0.000000 0.000000 0.000000 0.000000 0.000000 0.000000 0.000000 0.000000 -0.000000 -0.000000 63.684937 -0.000000 0.000000 0.000000 -0.000000 0.000000 0.000000 0.000000 0.000000 0.000000 -0.000000 -0.000000 63.684937 -0.000000 0.000000 0.000000 -0.000000 0.000000 0.000000 0.000000 0.000000 0.000000
-80.166041 83.523337 364.446299 -0.089265 0.008277 -63.642071 0.047048 0.076310 63.642046 -0.000000 0.000000 0.000000 -0.000000 0.000000 0.000000 0.000000 0.000000 0.000000 -0.000000 0.000000 0.000000 -0.000000 0.000000 0.000000 0.793673 0.200070 0.267755 -0.794604 -0.196340 -0.270503 0.000000 0.000000 0.000000 0.000000 0.000000 0.000000 -0.000000 0.000000 0.000000 0.842972 0.094635 -0.414507 -3.129544 -3.915194 0.894096 1.468458 5.728848 -1.105580 0.000000 0.000000 0.000000 0.000000 0.000000 0.000000 0.047048 0.076310 63.642046 -0.000000 0.000000 0.000000 -0.000000 0.000000 0.000000 0.000000 0.000000 0.000000 0.047048 0.076310 63.642046 -0.000000 0.000000 0.000000 -3.489575 -1.921475 0.997225 0.000000 0.000000 0.000000
-80.247072 83.467192 364.435197 -0.164110 0.010545 -63.633535 0.082331 0.142355 63.633448 -0.000000 0.000000 0.000000 -0.000000 0.000000 0.000000 0.000000 0.000000 0.000000 -0.000000 0.000000 0.000000 -0.000000 0.000000 0.000000 1.425658 0.362098 0.479180 -1.428663 -0.350051 -0.488050 0.000000 0.000000 0.000000 0.000000 0.000000 0.000000 -0.000000 0.000000 0.000000 1.417651 0.176552 -0.703250 -5.266098 -6.592587 1.486557 2.643460 9.501188 -1.944460 0.000000 0.000000 0.000000 0.000000 0.000000 0.000000 0.082331 0.142355 63.633448 -0.000000 0.000000 0.000000 -0.000000 0.000000 0.000000 0.000000 0.000000 0.000000 0.082331 0.142355 63.633448 -0.000000 0.000000 0.000000 -6.934268 -3.892959 1.863116 0.000000 0.000000 0.000000
-80.319145 83.427046 364.424679 -0.224644 0.006828 -63.660038 0.105793 0.198292 63.659868 -0.000000 0.000000 0.000000 -0.000000 0.000000 0.000000 0.000000 0.000000 0.000000 -0.000000 0.000000 0.000000 -0.000000 0.000000 0.000000 1.917548 0.489812 0.642620 -1.922985 -0.468004 -0.658672 0.000000 0.000000 0.000000 0.000000 0.000000 0.000000 -0.000000 0.000000 0.000000 1.724185 0.249731 -0.865747 -6.465007 -8.009128 1.879853 3.429256 11.420006 -2.533013 0.000000 0.000000 0.000000 0.000000 0.000000 0.000000 0.105793 0.198292 63.659868 -0.000000 0.000000 0.000000 -0.000000 0.000000 0.000000 0.000000 0.000000 0.000000 0.105793 0.198292 63.659868 -0.000000 0.000000 0.000000 -10.214925 -5.829761 2.569736 0.000000 0.000000 0.000000
-80.382262 83.402900 364.414743 -0.270952 -0.002864 -63.721879 0.117391 0.244218 63.721622 -0.000000 0.000000 0.000000 0.336440 -0.784910 0.083268 0.000000 0.000000 0.000000 -0.000000 0.000000 0.000000 -0.000000 0.000000 0.000000 2.285432 0.586176 0.764204 -2.293154 -0.555182 -0.787008 0.000000 0.000000 0.000000 0.000000 0.000000 0.000000 -0.000000 0.000000 0.000000 1.762604 0.316388 -0.901579 -6.760582 -8.165332 2.131016 3.779838 11.543390 -2.864525 0.000000 0.000000 0.000000 0.000000 0.000000 0.000000 0.117391 0.244218 63.721622 -0.000000 0.000000 0.000000 -0.000000 0.000000 0.000000 0.000000 0.000000 0.000000 0.117391 0.244218 63.721622 -0.000000 0.000000 0.000000 -13.208558 -7.638704 3.105288 0.000000 0.000000 0.000000
